<?xml version="1.0" encoding="UTF-8" standalone="no"?>
<!-- Created with Inkscape (http://www.inkscape.org/) -->

<svg
   width="529.16669mm"
   height="94.84375mm"
   viewBox="0 0 529.16669 94.84375"
   version="1.1"
   id="svg1085"
   inkscape:version="1.1.1 (3bf5ae0d25, 2021-09-20)"
   sodipodi:docname="clef.svg"
   xmlns:inkscape="http://www.inkscape.org/namespaces/inkscape"
   xmlns:sodipodi="http://sodipodi.sourceforge.net/DTD/sodipodi-0.dtd"
   xmlns="http://www.w3.org/2000/svg"
   xmlns:svg="http://www.w3.org/2000/svg">
  <sodipodi:namedview
     id="namedview1087"
     pagecolor="#505050"
     bordercolor="#eeeeee"
     borderopacity="1"
     inkscape:pageshadow="0"
     inkscape:pageopacity="0"
     inkscape:pagecheckerboard="0"
     inkscape:document-units="px"
     showgrid="false"
     inkscape:zoom="0.64052329"
     inkscape:cx="811.83621"
     inkscape:cy="169.39275"
     inkscape:window-width="2560"
     inkscape:window-height="1377"
     inkscape:window-x="2552"
     inkscape:window-y="-8"
     inkscape:window-maximized="1"
     inkscape:current-layer="layer1"
     fit-margin-top="0"
     fit-margin-left="0"
     fit-margin-right="0"
     fit-margin-bottom="75" />
  <defs
     id="defs1082" />
  <g
     inkscape:label="Layer 1"
     inkscape:groupmode="layer"
     id="layer1"
     transform="translate(49.131002,-60.713889)">
    <path
       d="M 480.03567,61.07568 H -49.131002 V 60.71389 H 480.03567 Z m 0,4.898304 H -49.131002 V 65.570573 H 480.03567 Z m 0,4.860152 H -49.131002 V 70.469411 H 480.03567 Z m 0,4.860418 H -49.131002 V 75.329563 H 480.03567 Z m 0,4.863086 H -49.131002 V 80.189713 H 480.03567 Z"
       id="path4"
       style="stroke-width:0.264583" />
    <path
       d="m -42.295969,80.457502 h -2.329321 v -19.62453 h 2.329321 z m 1.14525,0 v -19.62453 h 0.77644 v 19.62453 z M -38.472,66.326287 c 0.09059,0.297636 0.174699,0.595271 0.252608,0.892906 0.142083,0.440253 0.349398,0.776711 0.621152,1.009373 0.37528,0.310576 0.886437,0.459664 1.53347,0.446453 1.216423,-0.01294 1.824635,-1.138779 1.824635,-3.377245 0,-0.95761 -0.142347,-1.818165 -0.427042,-2.581665 -0.362339,-0.996162 -0.879966,-1.494647 -1.552881,-1.494647 -0.699061,0 -1.300802,0.135877 -1.805224,0.407631 -0.427042,0.219991 -0.640563,0.420572 -0.640563,0.601471 0,0.09085 0.07764,0.123207 0.232932,0.09705 0.232667,-0.0515 0.433248,-0.07738 0.601476,-0.07738 0.776441,0 1.164661,0.466133 1.164661,1.397593 0,0.362608 -0.168229,0.673184 -0.504686,0.931728 -0.28497,0.20732 -0.56292,0.310576 -0.834674,0.310576 -0.478805,0 -0.873495,-0.227 -1.184346,-0.680733 -0.271754,-0.414911 -0.38175,-0.816611 -0.329987,-1.20591 0.232667,-1.64643 1.662876,-2.405078 4.289832,-2.275401 0.879966,0.03909 1.649936,0.48878 2.309911,1.350413 0.659709,0.861364 0.989961,1.887721 0.989961,3.079341 0,1.230442 -0.291165,2.266775 -0.873495,3.108727 -0.659975,0.945478 -1.566087,1.411612 -2.717542,1.398672 -0.517627,0 -1.009372,-0.129138 -1.475236,-0.388221 -0.232932,-0.155019 -0.459394,-0.310307 -0.679651,-0.465864 -0.116466,0.129407 -0.252343,0.459394 -0.407631,0.989962 -0.142347,0.466133 -0.213521,0.744088 -0.213521,0.834673 0,0.07738 0.07122,0.355598 0.213521,0.834673 0.155288,0.517627 0.291165,0.847614 0.407631,0.989962 0.219992,-0.155288 0.446454,-0.310576 0.679651,-0.465864 0.465864,-0.258814 0.957609,-0.394691 1.475236,-0.407632 1.151455,0 2.057567,0.472604 2.717542,1.418352 0.58233,0.841953 0.873495,1.878015 0.873495,3.108458 0,1.19162 -0.330252,2.214742 -0.989961,3.069904 -0.659975,0.854624 -1.43021,1.308087 -2.309911,1.35985 -2.626956,0.129407 -4.057165,-0.628971 -4.289832,-2.275402 -0.05176,-0.38903 0.05828,-0.790998 0.329987,-1.205909 0.310576,-0.466673 0.705266,-0.700144 1.184346,-0.700144 0.271754,0 0.549704,0.109725 0.834674,0.329987 0.336457,0.245873 0.504686,0.556179 0.504686,0.931728 0,0.918788 -0.407906,1.378182 -1.222894,1.378182 -0.155288,0 -0.336457,-0.01941 -0.543508,-0.05823 -0.142347,-0.0391 -0.213521,-0.01322 -0.213521,0.07764 0,0.167959 0.219716,0.375279 0.659974,0.621152 0.530568,0.284695 1.119093,0.420572 1.766402,0.407631 0.672915,0 1.190542,-0.498486 1.552881,-1.494647 0.284695,-0.776711 0.427042,-1.636995 0.427042,-2.581665 0,-2.251677 -0.608212,-3.377246 -1.824635,-3.377246 -0.918788,0 -1.553156,0.310307 -1.902554,0.931728 -0.194375,0.465865 -0.38822,0.925258 -0.582055,1.377913 0.05146,-1.475507 -0.433788,-2.898711 -1.455826,-4.270422 1.048195,-1.371981 1.559076,-2.808396 1.53347,-4.309514 z"
       id="path18"
       style="stroke-width:0.264583" />
  </g>
</svg>
